# xmcd
#
# Track frame offsets:
#	150
#	16110
#	30765
#	44480
#	58882
#	72665
#	86225
#	99895
#	113445
#	126910
#	142977
#	156860
#	169802
#	183342
#	198065
#	213377
#	227792
#
# Disc length: 3260 seconds
#
# Revision: 0
# Processed by: cddbd v1.5.1PL2 Copyright (c) Steve Scherf et al.
# Submitted via: dBpowerAMP V4.0
#
DISCID=e00cba11
DTITLE=SOLTEIRÕES DO FORRÓ - VOL 2
DYEAR=2006
DGENRE=FORRO
TTITLE0=VOCE NAO VALE NADA
TTITLE1=BIRILIM BIM BOM
TTITLE2=VAI SAFADINHO
TTITLE3=CACHACEIRO FINO  
TTITLE4=ME CHAMA DE LAGARTICHA
TTITLE5=DARUNDARUNDE
TTITLE6=NOSSO AMOR ESTA CRESCENDO
TTITLE7=STOP
TTITLE8=TOQUE TOQUE
TTITLE9=EU VOU PRA VAQUEJADA
TTITLE10=RAPARIGUEI
TTITLE11=VE SE ME ERRA
TTITLE12=COLA COLA
TTITLE13=QUANDO TE VI
TTITLE14=AMEI DEMAIS VOCE 
TTITLE15=ONDE  ESTIVER 
TTITLE16=NAO QUERO TROCO
EXTD=
EXTT0=
EXTT1=
EXTT2=
EXTT3=
EXTT4=
EXTT5=
EXTT6=
EXTT7=
EXTT8=
EXTT9=
EXTT10=
EXTT11=
EXTT12=
EXTT13=
EXTT14=
EXTT15=
EXTT16=
PLAYORDER=
